<?xml version="1.0" standalone="no"?><!DOCTYPE svg PUBLIC "-//W3C//DTD SVG 1.1//EN" "http://www.w3.org/Graphics/SVG/1.1/DTD/svg11.dtd"><svg height="54" node-id="1" sillyvg="true" template-height="54" template-width="52" version="1.1" viewBox="0 0 52 54" width="52" xmlns="http://www.w3.org/2000/svg" xmlns:xlink="http://www.w3.org/1999/xlink"><defs node-id="127"><linearGradient gradientUnits="objectBoundingBox" id="linearGradient-2" node-id="9" spreadMethod="pad" x1="0.5" x2="0.5" y1="0.9806027" y2="0.023369761"><stop offset="0" stop-color="#687bfd"></stop><stop offset="1" stop-color="#89a2ff"></stop></linearGradient><linearGradient gradientUnits="objectBoundingBox" id="linearGradient-11" node-id="51" spreadMethod="pad" x1="0.5" x2="0.5" y1="0" y2="1"><stop offset="0" stop-color="#ffffff" stop-opacity="0.12"></stop><stop offset="1" stop-color="#687bfd" stop-opacity="0.8"></stop></linearGradient><linearGradient gradientUnits="objectBoundingBox" id="linearGradient-17" node-id="66" spreadMethod="pad" x1="0.5" x2="0.5" y1="0" y2="1"><stop offset="0" stop-color="#ffffff"></stop><stop offset="1" stop-color="#d7dfff"></stop></linearGradient><filter height="6" id="filter-1" node-id="7" width="2" x="-0.5" y="-2.5"><feGaussianBlur color-interpolation-filters="linearRGB" in="SourceGraphic" result="result1" stdDeviation="5 5"></feGaussianBlur></filter><filter height="1.4" id="filter-4" node-id="13" width="1.5" x="-0.25" y="-0.2"><feGaussianBlur color-interpolation-filters="linearRGB" in="SourceAlpha" result="shadowBlurInner1" stdDeviation="1.5 1.5"></feGaussianBlur><feOffset color-interpolation-filters="linearRGB" dx="0" dy="1" in="shadowBlurInner1" result="shadowOffsetInner1"></feOffset><feComposite color-interpolation-filters="linearRGB" in="shadowOffsetInner1" in2="SourceAlpha" k1="0" k2="-1" k3="1" k4="0" operator="arithmetic" result="shadowInnerInner1"></feComposite><feColorMatrix color-interpolation-filters="linearRGB" in="shadowInnerInner1" result="shadowMatrixInner1" type="matrix" values="0 0 0 0 1 0 0 0 0 1 0 0 0 0 1 0 0 0 0.3 0"></feColorMatrix><feGaussianBlur color-interpolation-filters="linearRGB" in="SourceAlpha" result="shadowBlurInner2" stdDeviation="1.5 1.5"></feGaussianBlur><feOffset color-interpolation-filters="linearRGB" dx="0" dy="-1" in="shadowBlurInner2" result="shadowOffsetInner2"></feOffset><feComposite color-interpolation-filters="linearRGB" in="shadowOffsetInner2" in2="SourceAlpha" k1="0" k2="-1" k3="1" k4="0" operator="arithmetic" result="shadowInnerInner2"></feComposite><feColorMatrix color-interpolation-filters="linearRGB" in="shadowInnerInner2" result="shadowMatrixInner2" type="matrix" values="0 0 0 0 1 0 0 0 0 1 0 0 0 0 1 0 0 0 0.2 0"></feColorMatrix><feMerge color-interpolation-filters="linearRGB" result="result9"><feMergeNode in="shadowMatrixInner1"></feMergeNode><feMergeNode in="shadowMatrixInner2"></feMergeNode></feMerge></filter><filter height="1.4" id="filter-7" node-id="26" width="1.5" x="-0.25" y="-0.2"><feGaussianBlur color-interpolation-filters="linearRGB" in="SourceAlpha" result="shadowBlurInner1" stdDeviation="1.5 1.5"></feGaussianBlur><feOffset color-interpolation-filters="linearRGB" dx="0" dy="1" in="shadowBlurInner1" result="shadowOffsetInner1"></feOffset><feComposite color-interpolation-filters="linearRGB" in="shadowOffsetInner1" in2="SourceAlpha" k1="0" k2="-1" k3="1" k4="0" operator="arithmetic" result="shadowInnerInner1"></feComposite><feColorMatrix color-interpolation-filters="linearRGB" in="shadowInnerInner1" result="shadowMatrixInner1" type="matrix" values="0 0 0 0 1 0 0 0 0 1 0 0 0 0 1 0 0 0 0.3 0"></feColorMatrix><feGaussianBlur color-interpolation-filters="linearRGB" in="SourceAlpha" result="shadowBlurInner2" stdDeviation="1.5 1.5"></feGaussianBlur><feOffset color-interpolation-filters="linearRGB" dx="0" dy="-1" in="shadowBlurInner2" result="shadowOffsetInner2"></feOffset><feComposite color-interpolation-filters="linearRGB" in="shadowOffsetInner2" in2="SourceAlpha" k1="0" k2="-1" k3="1" k4="0" operator="arithmetic" result="shadowInnerInner2"></feComposite><feColorMatrix color-interpolation-filters="linearRGB" in="shadowInnerInner2" result="shadowMatrixInner2" type="matrix" values="0 0 0 0 1 0 0 0 0 1 0 0 0 0 1 0 0 0 0.2 0"></feColorMatrix><feMerge color-interpolation-filters="linearRGB" result="result9"><feMergeNode in="shadowMatrixInner1"></feMergeNode><feMergeNode in="shadowMatrixInner2"></feMergeNode></feMerge></filter><filter height="1.129" id="filter-10" node-id="39" width="1.105" x="-0.053" y="-0.065"><feGaussianBlur color-interpolation-filters="linearRGB" in="SourceAlpha" result="shadowBlurInner1" stdDeviation="1.5 1.5"></feGaussianBlur><feOffset color-interpolation-filters="linearRGB" dx="0" dy="1" in="shadowBlurInner1" result="shadowOffsetInner1"></feOffset><feComposite color-interpolation-filters="linearRGB" in="shadowOffsetInner1" in2="SourceAlpha" k1="0" k2="-1" k3="1" k4="0" operator="arithmetic" result="shadowInnerInner1"></feComposite><feColorMatrix color-interpolation-filters="linearRGB" in="shadowInnerInner1" result="shadowMatrixInner1" type="matrix" values="0 0 0 0 1 0 0 0 0 1 0 0 0 0 1 0 0 0 0.3 0"></feColorMatrix><feGaussianBlur color-interpolation-filters="linearRGB" in="SourceAlpha" result="shadowBlurInner2" stdDeviation="1.5 1.5"></feGaussianBlur><feOffset color-interpolation-filters="linearRGB" dx="0" dy="-1" in="shadowBlurInner2" result="shadowOffsetInner2"></feOffset><feComposite color-interpolation-filters="linearRGB" in="shadowOffsetInner2" in2="SourceAlpha" k1="0" k2="-1" k3="1" k4="0" operator="arithmetic" result="shadowInnerInner2"></feComposite><feColorMatrix color-interpolation-filters="linearRGB" in="shadowInnerInner2" result="shadowMatrixInner2" type="matrix" values="0 0 0 0 1 0 0 0 0 1 0 0 0 0 1 0 0 0 0.2 0"></feColorMatrix><feMerge color-interpolation-filters="linearRGB" result="result9"><feMergeNode in="shadowMatrixInner1"></feMergeNode><feMergeNode in="shadowMatrixInner2"></feMergeNode></feMerge></filter><filter height="1.609" id="filter-14" node-id="55" width="1.467" x="-0.233" y="-0.217"><feOffset color-interpolation-filters="linearRGB" dx="0" dy="2" in="SourceAlpha" result="shadowOffsetOuter1"></feOffset><feGaussianBlur color-interpolation-filters="linearRGB" in="shadowOffsetOuter1" result="shadowBlurOuter1" stdDeviation="2 2"></feGaussianBlur><feColorMatrix color-interpolation-filters="linearRGB" in="shadowBlurOuter1" result="result3" type="matrix" values="0 0 0 0 0.287859059 0 0 0 0 0.378668978 0 0 0 0 1 0 0 0 1 0"></feColorMatrix></filter><filter height="1.565" id="filter-15" node-id="59" width="1.433" x="-0.217" y="-0.196"><feGaussianBlur color-interpolation-filters="linearRGB" in="SourceAlpha" result="shadowBlurInner1" stdDeviation="2 2"></feGaussianBlur><feOffset color-interpolation-filters="linearRGB" dx="0" dy="1" in="shadowBlurInner1" result="shadowOffsetInner1"></feOffset><feComposite color-interpolation-filters="linearRGB" in="shadowOffsetInner1" in2="SourceAlpha" k1="0" k2="-1" k3="1" k4="0" operator="arithmetic" result="shadowInnerInner1"></feComposite><feColorMatrix color-interpolation-filters="linearRGB" in="shadowInnerInner1" result="result4" type="matrix" values="0 0 0 0 1 0 0 0 0 1 0 0 0 0 1 0 0 0 0.1 0"></feColorMatrix></filter><filter height="1.118" id="filter-16" node-id="64" width="1.115" x="-0.058" y="-0.059"><feGaussianBlur color-interpolation-filters="linearRGB" in="SourceGraphic" result="result1" stdDeviation="0.5 0.5"></feGaussianBlur></filter><filter height="4.75" id="filter-19" node-id="70" width="2.364" x="-0.5" y="-1.125"><feOffset color-interpolation-filters="linearRGB" dx="2" dy="3" in="SourceAlpha" result="shadowOffsetOuter1"></feOffset><feGaussianBlur color-interpolation-filters="linearRGB" in="shadowOffsetOuter1" result="shadowBlurOuter1" stdDeviation="2 2"></feGaussianBlur><feColorMatrix color-interpolation-filters="linearRGB" in="shadowBlurOuter1" result="result3" type="matrix" values="0 0 0 0 0.407843137 0 0 0 0 0.482352941 0 0 0 0 0.992156863 0 0 0 1 0"></feColorMatrix></filter><filter height="3.5" id="filter-20" node-id="74" width="1.909" x="-0.273" y="-0.5"><feGaussianBlur color-interpolation-filters="linearRGB" in="SourceAlpha" result="shadowBlurInner1" stdDeviation="0.5 0.5"></feGaussianBlur><feOffset color-interpolation-filters="linearRGB" dx="0" dy="1" in="shadowBlurInner1" result="shadowOffsetInner1"></feOffset><feComposite color-interpolation-filters="linearRGB" in="shadowOffsetInner1" in2="SourceAlpha" k1="0" k2="-1" k3="1" k4="0" operator="arithmetic" result="shadowInnerInner1"></feComposite><feColorMatrix color-interpolation-filters="linearRGB" in="shadowInnerInner1" result="result4" type="matrix" values="0 0 0 0 1 0 0 0 0 1 0 0 0 0 1 0 0 0 0.5 0"></feColorMatrix></filter><filter height="2.167" id="filter-22" node-id="80" width="4.5" x="-1.75" y="-0.417"><feOffset color-interpolation-filters="linearRGB" dx="0" dy="2" in="SourceAlpha" result="shadowOffsetOuter1"></feOffset><feGaussianBlur color-interpolation-filters="linearRGB" in="shadowOffsetOuter1" result="shadowBlurOuter1" stdDeviation="2 2"></feGaussianBlur><feColorMatrix color-interpolation-filters="linearRGB" in="shadowBlurOuter1" result="result3" type="matrix" values="0 0 0 0 0.407843137 0 0 0 0 0.482352941 0 0 0 0 0.992156863 0 0 0 1 0"></feColorMatrix></filter><filter height="1.833" id="filter-23" node-id="84" width="3.5" x="-1.25" y="-0.25"><feGaussianBlur color-interpolation-filters="linearRGB" in="SourceAlpha" result="shadowBlurInner1" stdDeviation="0.5 0.5"></feGaussianBlur><feOffset color-interpolation-filters="linearRGB" dx="0" dy="1" in="shadowBlurInner1" result="shadowOffsetInner1"></feOffset><feComposite color-interpolation-filters="linearRGB" in="shadowOffsetInner1" in2="SourceAlpha" k1="0" k2="-1" k3="1" k4="0" operator="arithmetic" result="shadowInnerInner1"></feComposite><feColorMatrix color-interpolation-filters="linearRGB" in="shadowInnerInner1" result="result4" type="matrix" values="0 0 0 0 1 0 0 0 0 1 0 0 0 0 1 0 0 0 0.5 0"></feColorMatrix></filter><mask height="1.2" id="mask-13" node-id="110" width="1.2" x="-0.1" y="-0.1"><path d="M 16.13 8.00 L 35.87 8.00 L 37.84 8.14 L 38.95 8.53 L 39.82 9.18 L 40.47 10.05 L 40.86 11.16 L 41.00 13.13 L 41.00 25.87 L 40.86 27.84 L 40.47 28.95 L 39.82 29.82 L 38.95 30.47 L 37.84 30.86 L 35.87 31.00 L 16.13 31.00 L 14.16 30.86 L 13.05 30.47 L 12.18 29.82 L 11.53 28.95 L 11.14 27.84 L 11.00 25.87 L 11.00 13.13 L 11.14 11.16 L 11.53 10.05 L 12.18 9.18 L 13.05 8.53 L 14.16 8.14 L 16.13 8.00 Z" fill="#ffffff" fill-rule="evenodd" node-id="287" stroke="none" target-height="23" target-width="30" target-x="11" target-y="8"></path></mask></defs><g node-id="396"><g node-id="397"><g node-id="398"><g node-id="400"><path d="M 41.00 39.00 L 40.82 39.45 L 40.23 39.95 L 38.95 40.51 L 36.77 41.09 L 33.57 41.59 L 30.09 41.89 L 26.00 42.00 L 21.91 41.89 L 18.43 41.59 L 15.23 41.09 L 13.05 40.51 L 11.77 39.95 L 11.18 39.45 L 11.00 39.00 L 11.18 38.55 L 11.77 38.05 L 13.05 37.49 L 15.23 36.91 L 18.43 36.41 L 21.91 36.11 L 26.00 36.00 L 30.09 36.11 L 33.57 36.41 L 36.77 36.91 L 38.95 37.49 L 40.23 38.05 L 40.82 38.55 L 41.00 39.00 Z" fill="#1f44ff" fill-opacity="0.55" fill-rule="evenodd" filter="url(#filter-1)" group-id="1,2,3,5" id="阴影" node-id="93" stroke="none" target-height="6" target-width="30" target-x="11" target-y="36"></path></g><g node-id="401"><g node-id="402"><g node-id="405"><g node-id="416"><path d="M 18.57 0.00 L 19.43 0.00 L 20.64 0.10 L 21.47 0.40 L 22.12 0.88 L 22.60 1.53 L 22.90 2.36 L 23.00 3.57 L 23.00 6.43 L 22.90 7.64 L 22.60 8.47 L 22.12 9.12 L 21.47 9.60 L 20.64 9.90 L 19.43 10.00 L 18.57 10.00 L 17.36 9.90 L 16.53 9.60 L 15.88 9.12 L 15.40 8.47 L 15.10 7.64 L 15.00 6.43 L 15.00 3.57 L 15.10 2.36 L 15.40 1.53 L 15.88 0.88 L 16.53 0.40 L 17.36 0.10 L 18.57 0.00 Z" fill="url(#linearGradient-2)" fill-rule="evenodd" group-id="1,2,3,6,7,10,21" node-id="307" stroke="none" target-height="10" target-width="8" target-x="15" target-y="0"></path></g><path d="M 18.57 0.00 L 19.43 0.00 L 20.64 0.10 L 21.47 0.40 L 22.12 0.88 L 22.60 1.53 L 22.90 2.36 L 23.00 3.57 L 23.00 6.43 L 22.90 7.64 L 22.60 8.47 L 22.12 9.12 L 21.47 9.60 L 20.64 9.90 L 19.43 10.00 L 18.57 10.00 L 17.36 9.90 L 16.53 9.60 L 15.88 9.12 L 15.40 8.47 L 15.10 7.64 L 15.00 6.43 L 15.00 3.57 L 15.10 2.36 L 15.40 1.53 L 15.88 0.88 L 16.53 0.40 L 17.36 0.10 L 18.57 0.00 Z" fill="#000000" fill-rule="evenodd" filter="url(#filter-4)" group-id="1,2,3,6,7,10,22" node-id="312" stroke="none" target-height="10" target-width="8" target-x="15" target-y="0"></path></g><g node-id="406"><g node-id="418"><g node-id="424"><path d="M 32.57 0.00 L 33.43 0.00 L 34.64 0.10 L 35.47 0.40 L 36.12 0.88 L 36.60 1.53 L 36.90 2.36 L 37.00 3.57 L 37.00 6.43 L 36.90 7.64 L 36.60 8.47 L 36.12 9.12 L 35.47 9.60 L 34.64 9.90 L 33.43 10.00 L 32.57 10.00 L 31.36 9.90 L 30.53 9.60 L 29.88 9.12 L 29.40 8.47 L 29.10 7.64 L 29.00 6.43 L 29.00 3.57 L 29.10 2.36 L 29.40 1.53 L 29.88 0.88 L 30.53 0.40 L 31.36 0.10 L 32.57 0.00 Z" fill="url(#linearGradient-2)" fill-rule="evenodd" group-id="1,2,3,6,7,11,23,29" node-id="320" stroke="none" target-height="10" target-width="8" target-x="29" target-y="0"></path></g><path d="M 32.57 0.00 L 33.43 0.00 L 34.64 0.10 L 35.47 0.40 L 36.12 0.88 L 36.60 1.53 L 36.90 2.36 L 37.00 3.57 L 37.00 6.43 L 36.90 7.64 L 36.60 8.47 L 36.12 9.12 L 35.47 9.60 L 34.64 9.90 L 33.43 10.00 L 32.57 10.00 L 31.36 9.90 L 30.53 9.60 L 29.88 9.12 L 29.40 8.47 L 29.10 7.64 L 29.00 6.43 L 29.00 3.57 L 29.10 2.36 L 29.40 1.53 L 29.88 0.88 L 30.53 0.40 L 31.36 0.10 L 32.57 0.00 Z" fill="#000000" fill-rule="evenodd" filter="url(#filter-7)" group-id="1,2,3,6,7,11,23,30" node-id="325" stroke="none" target-height="10" target-width="8" target-x="29" target-y="0"></path></g></g><g node-id="407"><g node-id="419"><path d="M 17.26 4.00 L 34.74 4.00 L 37.19 4.08 L 38.67 4.27 L 39.93 4.62 L 40.91 5.07 L 42.65 6.35 L 43.93 8.09 L 44.38 9.07 L 44.73 10.33 L 44.92 11.81 L 45.00 14.26 L 45.00 24.74 L 44.92 27.19 L 44.73 28.67 L 44.38 29.93 L 43.93 30.91 L 42.65 32.65 L 40.91 33.93 L 39.93 34.38 L 38.67 34.73 L 37.19 34.92 L 34.74 35.00 L 17.26 35.00 L 14.81 34.92 L 13.33 34.73 L 12.07 34.38 L 11.09 33.93 L 9.35 32.65 L 8.07 30.91 L 7.62 29.93 L 7.27 28.67 L 7.08 27.19 L 7.00 24.74 L 7.00 14.26 L 7.08 11.81 L 7.27 10.33 L 7.62 9.07 L 8.07 8.09 L 9.35 6.35 L 11.09 5.07 L 12.07 4.62 L 13.33 4.27 L 14.81 4.08 L 17.26 4.00 Z" fill="url(#linearGradient-2)" fill-rule="evenodd" group-id="1,2,3,6,7,12,24" node-id="333" stroke="none" target-height="31" target-width="38" target-x="7" target-y="4"></path></g><path d="M 17.26 4.00 L 34.74 4.00 L 37.19 4.08 L 38.67 4.27 L 39.93 4.62 L 40.91 5.07 L 42.65 6.35 L 43.93 8.09 L 44.38 9.07 L 44.73 10.33 L 44.92 11.81 L 45.00 14.26 L 45.00 24.74 L 44.92 27.19 L 44.73 28.67 L 44.38 29.93 L 43.93 30.91 L 42.65 32.65 L 40.91 33.93 L 39.93 34.38 L 38.67 34.73 L 37.19 34.92 L 34.74 35.00 L 17.26 35.00 L 14.81 34.92 L 13.33 34.73 L 12.07 34.38 L 11.09 33.93 L 9.35 32.65 L 8.07 30.91 L 7.62 29.93 L 7.27 28.67 L 7.08 27.19 L 7.00 24.74 L 7.00 14.26 L 7.08 11.81 L 7.27 10.33 L 7.62 9.07 L 8.07 8.09 L 9.35 6.35 L 11.09 5.07 L 12.07 4.62 L 13.33 4.27 L 14.81 4.08 L 17.26 4.00 Z" fill="#000000" fill-rule="evenodd" filter="url(#filter-10)" group-id="1,2,3,6,7,12,25" node-id="338" stroke="none" target-height="31" target-width="38" target-x="7" target-y="4"></path></g><g node-id="408"><g node-id="421"><path d="M 16.13 8.00 L 35.87 8.00 L 37.84 8.14 L 38.95 8.53 L 39.82 9.18 L 40.47 10.05 L 40.86 11.16 L 41.00 13.13 L 41.00 25.87 L 40.86 27.84 L 40.47 28.95 L 39.82 29.82 L 38.95 30.47 L 37.84 30.86 L 35.87 31.00 L 16.13 31.00 L 14.16 30.86 L 13.05 30.47 L 12.18 29.82 L 11.53 28.95 L 11.14 27.84 L 11.00 25.87 L 11.00 13.13 L 11.14 11.16 L 11.53 10.05 L 12.18 9.18 L 13.05 8.53 L 14.16 8.14 L 16.13 8.00 Z" fill="#000000" fill-rule="evenodd" filter="url(#filter-14)" group-id="1,2,3,6,7,13,26" node-id="345" stroke="none" target-height="23" target-width="30" target-x="11" target-y="8"></path></g><g node-id="422"><path d="M 16.13 8.00 L 35.87 8.00 L 37.84 8.14 L 38.95 8.53 L 39.82 9.18 L 40.47 10.05 L 40.86 11.16 L 41.00 13.13 L 41.00 25.87 L 40.86 27.84 L 40.47 28.95 L 39.82 29.82 L 38.95 30.47 L 37.84 30.86 L 35.87 31.00 L 16.13 31.00 L 14.16 30.86 L 13.05 30.47 L 12.18 29.82 L 11.53 28.95 L 11.14 27.84 L 11.00 25.87 L 11.00 13.13 L 11.14 11.16 L 11.53 10.05 L 12.18 9.18 L 13.05 8.53 L 14.16 8.14 L 16.13 8.00 Z" fill="url(#linearGradient-11)" fill-rule="evenodd" group-id="1,2,3,6,7,13,27" node-id="350" stroke="none" target-height="23" target-width="30" target-x="11" target-y="8"></path></g><path d="M 16.13 8.00 L 35.87 8.00 L 37.84 8.14 L 38.95 8.53 L 39.82 9.18 L 40.47 10.05 L 40.86 11.16 L 41.00 13.13 L 41.00 25.87 L 40.86 27.84 L 40.47 28.95 L 39.82 29.82 L 38.95 30.47 L 37.84 30.86 L 35.87 31.00 L 16.13 31.00 L 14.16 30.86 L 13.05 30.47 L 12.18 29.82 L 11.53 28.95 L 11.14 27.84 L 11.00 25.87 L 11.00 13.13 L 11.14 11.16 L 11.53 10.05 L 12.18 9.18 L 13.05 8.53 L 14.16 8.14 L 16.13 8.00 Z" fill="#000000" fill-rule="evenodd" filter="url(#filter-15)" group-id="1,2,3,6,7,13,28" node-id="355" stroke="none" target-height="23" target-width="30" target-x="11" target-y="8"></path></g><path d="M 15.35 27.78 L 24.42 21.16 L 25.10 20.71 L 25.56 20.54 L 26.44 20.54 L 26.90 20.71 L 27.58 21.16 L 36.65 27.78 L 37.67 28.58 L 38.19 29.14 L 38.81 30.37 L 38.96 31.12 L 39.00 32.41 L 39.00 40.87 L 38.86 42.84 L 38.47 43.96 L 37.82 44.83 L 36.95 45.47 L 35.84 45.87 L 33.87 46.00 L 18.13 46.00 L 16.16 45.87 L 15.05 45.47 L 14.18 44.83 L 13.53 43.96 L 13.14 42.84 L 13.00 40.87 L 13.00 32.41 L 13.04 31.12 L 13.19 30.37 L 13.81 29.14 L 14.33 28.58 L 15.35 27.78 Z" fill="#ffffff" fill-opacity="0.2" fill-rule="evenodd" filter="url(#filter-16)" group-id="1,2,3,6,7,14" id="矩形" node-id="116" stroke="none" target-height="25.466383" target-width="26" target-x="13" target-y="20.53565"></path></g><g node-id="403"><g node-id="410"><path d="M 24.00 21.00 L 31.00 21.00 L 31.78 21.16 L 32.41 21.59 L 32.84 22.22 L 33.00 23.00 L 33.00 23.00 L 32.84 23.78 L 32.41 24.41 L 31.78 24.84 L 31.00 25.00 L 24.00 25.00 L 23.22 24.84 L 22.59 24.41 L 22.16 23.78 L 22.00 23.00 L 22.00 23.00 L 22.16 22.22 L 22.59 21.59 L 23.22 21.16 L 24.00 21.00 Z" fill="#000000" fill-rule="evenodd" filter="url(#filter-19)" group-id="1,2,3,6,8,15" node-id="367" stroke="none" target-height="4" target-width="11" target-x="22" target-y="21"></path></g><g node-id="411"><path d="M 24.00 21.00 L 31.00 21.00 L 31.78 21.16 L 32.41 21.59 L 32.84 22.22 L 33.00 23.00 L 33.00 23.00 L 32.84 23.78 L 32.41 24.41 L 31.78 24.84 L 31.00 25.00 L 24.00 25.00 L 23.22 24.84 L 22.59 24.41 L 22.16 23.78 L 22.00 23.00 L 22.00 23.00 L 22.16 22.22 L 22.59 21.59 L 23.22 21.16 L 24.00 21.00 Z" fill="url(#linearGradient-17)" fill-rule="evenodd" group-id="1,2,3,6,8,16" node-id="372" stroke="none" target-height="4" target-width="11" target-x="22" target-y="21"></path></g><path d="M 24.00 21.00 L 31.00 21.00 L 31.78 21.16 L 32.41 21.59 L 32.84 22.22 L 33.00 23.00 L 33.00 23.00 L 32.84 23.78 L 32.41 24.41 L 31.78 24.84 L 31.00 25.00 L 24.00 25.00 L 23.22 24.84 L 22.59 24.41 L 22.16 23.78 L 22.00 23.00 L 22.00 23.00 L 22.16 22.22 L 22.59 21.59 L 23.22 21.16 L 24.00 21.00 Z" fill="#000000" fill-rule="evenodd" filter="url(#filter-20)" group-id="1,2,3,6,8,17" node-id="377" stroke="none" target-height="4" target-width="11" target-x="22" target-y="21"></path></g><g node-id="404"><g node-id="413"><path d="M 24.00 13.00 L 24.00 13.00 L 24.78 13.16 L 25.41 13.59 L 25.84 14.22 L 26.00 15.00 L 26.00 23.00 L 25.84 23.78 L 25.41 24.41 L 24.78 24.84 L 24.00 25.00 L 24.00 25.00 L 23.22 24.84 L 22.59 24.41 L 22.16 23.78 L 22.00 23.00 L 22.00 15.00 L 22.16 14.22 L 22.59 13.59 L 23.22 13.16 L 24.00 13.00 Z" fill="#000000" fill-rule="evenodd" filter="url(#filter-22)" group-id="1,2,3,6,9,18" node-id="384" stroke="none" target-height="12" target-width="4" target-x="22" target-y="13"></path></g><g node-id="414"><path d="M 24.00 13.00 L 24.00 13.00 L 24.78 13.16 L 25.41 13.59 L 25.84 14.22 L 26.00 15.00 L 26.00 23.00 L 25.84 23.78 L 25.41 24.41 L 24.78 24.84 L 24.00 25.00 L 24.00 25.00 L 23.22 24.84 L 22.59 24.41 L 22.16 23.78 L 22.00 23.00 L 22.00 15.00 L 22.16 14.22 L 22.59 13.59 L 23.22 13.16 L 24.00 13.00 Z" fill="url(#linearGradient-17)" fill-rule="evenodd" group-id="1,2,3,6,9,19" node-id="389" stroke="none" target-height="12" target-width="4" target-x="22" target-y="13"></path></g><path d="M 24.00 13.00 L 24.00 13.00 L 24.78 13.16 L 25.41 13.59 L 25.84 14.22 L 26.00 15.00 L 26.00 23.00 L 25.84 23.78 L 25.41 24.41 L 24.78 24.84 L 24.00 25.00 L 24.00 25.00 L 23.22 24.84 L 22.59 24.41 L 22.16 23.78 L 22.00 23.00 L 22.00 15.00 L 22.16 14.22 L 22.59 13.59 L 23.22 13.16 L 24.00 13.00 Z" fill="#000000" fill-rule="evenodd" filter="url(#filter-23)" group-id="1,2,3,6,9,20" node-id="394" stroke="none" target-height="12" target-width="4" target-x="22" target-y="13"></path></g></g></g><path d="M 0.00 -2.00 L 52.00 -2.00 L 52.00 50.00 L 0.00 50.00 Z" fill="none" group-id="1,2,4" id="矩形" node-id="125" stroke="none" target-height="52" target-width="52" target-x="0" target-y="-2"></path></g></g></svg>